<svg width="25" height="25" viewBox="0 0 25 25" fill="none" xmlns="http://www.w3.org/2000/svg">
<path fill-rule="evenodd" clip-rule="evenodd" d="M3.73438 7.41797C3.73438 4.79276 3.76248 3.91797 7.23438 3.91797C10.7063 3.91797 10.7344 4.79276 10.7344 7.41797C10.7344 10.0432 10.7454 10.918 7.23438 10.918C3.7233 10.918 3.73438 10.0432 3.73438 7.41797Z" stroke="black" stroke-width="1.5" stroke-linecap="round" stroke-linejoin="round"/>
<path fill-rule="evenodd" clip-rule="evenodd" d="M14.7344 7.41797C14.7344 4.79276 14.7625 3.91797 18.2344 3.91797C21.7063 3.91797 21.7344 4.79276 21.7344 7.41797C21.7344 10.0432 21.7454 10.918 18.2344 10.918C14.7233 10.918 14.7344 10.0432 14.7344 7.41797Z" stroke="black" stroke-width="1.5" stroke-linecap="round" stroke-linejoin="round"/>
<path fill-rule="evenodd" clip-rule="evenodd" d="M3.73438 18.418C3.73438 15.7928 3.76248 14.918 7.23438 14.918C10.7063 14.918 10.7344 15.7928 10.7344 18.418C10.7344 21.0432 10.7454 21.918 7.23438 21.918C3.7233 21.918 3.73438 21.0432 3.73438 18.418Z" stroke="black" stroke-width="1.5" stroke-linecap="round" stroke-linejoin="round"/>
<path fill-rule="evenodd" clip-rule="evenodd" d="M14.7344 18.418C14.7344 15.7928 14.7625 14.918 18.2344 14.918C21.7063 14.918 21.7344 15.7928 21.7344 18.418C21.7344 21.0432 21.7454 21.918 18.2344 21.918C14.7233 21.918 14.7344 21.0432 14.7344 18.418Z" stroke="black" stroke-width="1.5" stroke-linecap="round" stroke-linejoin="round"/>
</svg>
