<svg width="24" height="24" viewBox="0 0 24 24" fill="none" xmlns="http://www.w3.org/2000/svg">
<g clip-path="url(#clip0_1357_2029)">
<path d="M15.2198 6C14.7431 6 14.3327 5.66354 14.2392 5.19612L14.1608 4.80388C14.0673 4.33646 13.6569 4 13.1802 4H6C5.44772 4 5 4.44772 5 5V20C5 20.5523 5.44772 21 6 21C6.55228 21 7 20.5523 7 20V15C7 14.4477 7.44772 14 8 14H11.7802C12.2569 14 12.6673 14.3365 12.7608 14.8039L12.8392 15.1961C12.9327 15.6635 13.3431 16 13.8198 16H19C19.5523 16 20 15.5523 20 15V7C20 6.44772 19.5523 6 19 6H15.2198Z" fill="white"/>
</g>
<defs>
<clipPath id="clip0_1357_2029">
<rect width="24" height="24" fill="white"/>
</clipPath>
</defs>
</svg>
