<svg width="44" height="44" viewBox="0 0 44 44" fill="none" xmlns="http://www.w3.org/2000/svg">
<circle cx="22" cy="22" r="22" fill="#E8E2F4"/>
<path d="M28.0527 20.5225C29.5602 20.3108 30.7207 19.0184 30.7239 17.4526C30.7239 15.9095 29.5991 14.6301 28.1241 14.3881" stroke="#12AF9B" stroke-linecap="round" stroke-linejoin="round"/>
<path d="M30.043 24.1464C31.5028 24.3646 32.5218 24.8758 32.5218 25.9293C32.5218 26.6544 32.0421 27.1255 31.2662 27.4216" stroke="#12AF9B" stroke-linecap="round" stroke-linejoin="round"/>
<path fill-rule="evenodd" clip-rule="evenodd" d="M21.5681 24.5933C18.0951 24.5933 15.1289 25.1195 15.1289 27.2212C15.1289 29.3219 18.0767 29.8633 21.5681 29.8633C25.0411 29.8633 28.0063 29.3424 28.0063 27.2396C28.0063 25.1368 25.0595 24.5933 21.5681 24.5933Z" stroke="#12AF9B" stroke-linecap="round" stroke-linejoin="round"/>
<path fill-rule="evenodd" clip-rule="evenodd" d="M21.5682 21.5936C23.8472 21.5936 25.695 19.7469 25.695 17.4668C25.695 15.1879 23.8472 13.3401 21.5682 13.3401C19.2892 13.3401 17.4414 15.1879 17.4414 17.4668C17.4328 19.7382 19.2665 21.586 21.5379 21.5936H21.5682Z" stroke="#12AF9B" stroke-linecap="round" stroke-linejoin="round"/>
<path d="M15.0833 20.5225C13.5748 20.3108 12.4154 19.0184 12.4121 17.4526C12.4121 15.9095 13.537 14.6301 15.012 14.3881" stroke="#12AF9B" stroke-linecap="round" stroke-linejoin="round"/>
<path d="M13.0941 24.1464C11.6342 24.3646 10.6152 24.8758 10.6152 25.9293C10.6152 26.6544 11.095 27.1255 11.8709 27.4216" stroke="#12AF9B" stroke-linecap="round" stroke-linejoin="round"/>
</svg>
