<svg width="20" height="20" viewBox="0 0 20 20" fill="none" xmlns="http://www.w3.org/2000/svg">
<path d="M6.55407 13.2198C6.39585 13.0616 6.38267 12.8133 6.51451 12.6401L6.55407 12.5948L12.0479 7.10145L8.08667 7.10956C7.84259 7.11009 7.64429 6.91264 7.64376 6.66855C7.64328 6.44665 7.80642 6.2626 8.01947 6.23057L8.08477 6.22564L13.1159 6.2148C13.148 6.21474 13.1794 6.21811 13.2096 6.22457C13.2185 6.22673 13.2276 6.22897 13.2366 6.23149C13.2445 6.23345 13.2523 6.23589 13.26 6.23853C13.2711 6.24255 13.2824 6.2469 13.2935 6.25173C13.3021 6.25532 13.3102 6.25916 13.3182 6.26323C13.3279 6.26839 13.3381 6.2741 13.3481 6.28024C13.3552 6.28444 13.3617 6.28873 13.3681 6.29318C13.3776 6.29989 13.3872 6.30708 13.3965 6.31472C13.4037 6.32046 13.4106 6.32642 13.4172 6.33259C13.4212 6.33642 13.4253 6.34041 13.4294 6.3445L13.4414 6.35676C13.4472 6.36314 13.453 6.36968 13.4585 6.3764L13.4294 6.3445C13.4491 6.36422 13.4666 6.38534 13.4818 6.40755C13.4855 6.41282 13.4891 6.41838 13.4926 6.42401C13.4998 6.43564 13.5063 6.44726 13.5122 6.4591C13.5152 6.46496 13.5182 6.47137 13.5211 6.47785C13.5268 6.49091 13.5318 6.50384 13.5362 6.51694C13.5382 6.52307 13.5403 6.52965 13.5421 6.53628C13.5452 6.54713 13.5478 6.55774 13.5499 6.56843C13.5515 6.57598 13.5529 6.58404 13.5541 6.59217L13.555 6.59848C13.5576 6.6179 13.5588 6.63746 13.5588 6.65702L13.5588 6.65768L13.5483 11.6892C13.5478 11.9333 13.3496 12.1307 13.1055 12.1302C12.8836 12.1298 12.7002 11.9659 12.6691 11.7527L12.6644 11.6873L12.6721 7.72732L7.1791 13.2198C7.0065 13.3924 6.72666 13.3924 6.55407 13.2198Z" fill="white"/>
</svg>
