<svg width="20" height="20" viewBox="0 0 20 20" fill="none" xmlns="http://www.w3.org/2000/svg">
<g clip-path="url(#clip0_3733_750)">
<path d="M0.833984 17.5H4.16732V7.50004H0.833984V17.5ZM19.1673 8.33337C19.1673 7.41671 18.4173 6.66671 17.5007 6.66671H12.2423L13.034 2.85837L13.059 2.59171C13.059 2.25004 12.9173 1.93337 12.6923 1.70837L11.809 0.833374L6.32565 6.32504C6.01732 6.62504 5.83398 7.04171 5.83398 7.50004V15.8334C5.83398 16.75 6.58398 17.5 7.50065 17.5H15.0007C15.6923 17.5 16.284 17.0834 16.534 16.4834L19.0507 10.6084C19.1257 10.4167 19.1673 10.2167 19.1673 10V8.33337Z" fill="#12AF9B"/>
</g>
<defs>
<clipPath id="clip0_3733_750">
<rect width="20" height="20" fill="white"/>
</clipPath>
</defs>
</svg>
