<svg width="44" height="44" viewBox="0 0 44 44" fill="none" xmlns="http://www.w3.org/2000/svg">
<circle cx="22" cy="22" r="22" fill="#E8E2F4"/>
<path d="M22.3336 26.1967V23.5923" stroke="#12AF9B" stroke-width="1.5" stroke-linecap="round" stroke-linejoin="round"/>
<path fill-rule="evenodd" clip-rule="evenodd" d="M28.6938 14.5487C30.4287 14.5487 31.8248 15.9551 31.8248 17.69V21.2213C29.2995 22.6996 25.9631 23.5927 22.3291 23.5927C18.6951 23.5927 15.3691 22.6996 12.8438 21.2213V17.6797C12.8438 15.9448 14.2501 14.5487 15.985 14.5487H28.6938Z" stroke="#12AF9B" stroke-linecap="round" stroke-linejoin="round"/>
<path d="M25.9281 14.5442V14.1685C25.9281 12.9161 24.9118 11.8998 23.6594 11.8998H21.0109C19.7585 11.8998 18.7422 12.9161 18.7422 14.1685V14.5442" stroke="#12AF9B" stroke-linecap="round" stroke-linejoin="round"/>
<path d="M12.8691 24.9712L13.0632 27.5468C13.1946 29.2827 14.641 30.6244 16.381 30.6244H28.288C30.028 30.6244 31.4745 29.2827 31.6059 27.5468L31.7999 24.9712" stroke="#12AF9B" stroke-linecap="round" stroke-linejoin="round"/>
</svg>
