<svg width="16" height="17" viewBox="0 0 16 17" fill="none" xmlns="http://www.w3.org/2000/svg">
<g clip-path="url(#clip0_3792_845)">
<path d="M13.334 7.16671V5.16671C13.334 4.43337 12.734 3.83337 12.0007 3.83337H4.00065C3.26732 3.83337 2.66732 4.43337 2.66732 5.16671V7.16671C1.93398 7.16671 1.33398 7.76671 1.33398 8.50004V11.8334H2.22065L2.66732 13.1667H3.33398L3.78065 11.8334H12.2273L12.6673 13.1667H13.334L13.7807 11.8334H14.6673V8.50004C14.6673 7.76671 14.0673 7.16671 13.334 7.16671ZM7.33398 7.16671H4.00065V5.16671H7.33398V7.16671ZM12.0007 7.16671H8.66732V5.16671H12.0007V7.16671Z" fill="#737373"/>
</g>
<defs>
<clipPath id="clip0_3792_845">
<rect width="16" height="16" fill="white" transform="translate(0 0.5)"/>
</clipPath>
</defs>
</svg>
