<svg width="16" height="17" viewBox="0 0 16 17" fill="none" xmlns="http://www.w3.org/2000/svg">
<g clip-path="url(#clip0_3792_855)">
<path d="M4.66732 6.50004C5.4037 6.50004 6.00065 5.90309 6.00065 5.16671C6.00065 4.43033 5.4037 3.83337 4.66732 3.83337C3.93094 3.83337 3.33398 4.43033 3.33398 5.16671C3.33398 5.90309 3.93094 6.50004 4.66732 6.50004Z" fill="#737373"/>
<path d="M13.334 9.16671V3.72004C13.334 2.68004 12.4873 1.83337 11.4473 1.83337C10.9473 1.83337 10.4673 2.03337 10.114 2.38671L9.28065 3.22004C9.17398 3.18671 9.06065 3.16671 8.94065 3.16671C8.67398 3.16671 8.42732 3.24671 8.22065 3.38004L10.0607 5.22004C10.194 5.01337 10.274 4.76671 10.274 4.50004C10.274 4.38004 10.254 4.27337 10.2273 4.16004L11.0607 3.32671C11.1607 3.22671 11.3007 3.16671 11.4473 3.16671C11.754 3.16671 12.0007 3.41337 12.0007 3.72004V9.16671H7.43398C7.23398 9.02671 7.05398 8.86671 6.88732 8.68671L5.95398 7.65337C5.82732 7.51337 5.66732 7.40004 5.49398 7.32004C5.28732 7.22004 5.06065 7.16671 4.82732 7.16671C4.00065 7.17337 3.33398 7.84004 3.33398 8.66671V9.16671H1.33398V13.1667C1.33398 13.9 1.93398 14.5 2.66732 14.5C2.66732 14.8667 2.96732 15.1667 3.33398 15.1667H12.6673C13.034 15.1667 13.334 14.8667 13.334 14.5C14.0673 14.5 14.6673 13.9 14.6673 13.1667V9.16671H13.334Z" fill="#737373"/>
</g>
<defs>
<clipPath id="clip0_3792_855">
<rect width="16" height="16" fill="white" transform="translate(0 0.5)"/>
</clipPath>
</defs>
</svg>
